<?xml version="1.0" encoding="iso-8859-1"?>
<!-- Generator: Adobe Illustrator 19.0.0, SVG Export Plug-In . SVG Version: 6.00 Build 0)  -->
<svg version="1.1" id="Layer_1" xmlns="http://www.w3.org/2000/svg" xmlns:xlink="http://www.w3.org/1999/xlink" x="0px" y="0px"
	 viewBox="0 0 502 502" style="enable-background:new 0 0 502 502;" xml:space="preserve">
<g>
	<g>
		<g>
			<path d="M492,19.19H10c-5.522,0-10,4.477-10,10v272.042v64.342c0,5.523,4.478,10,10,10h231v26.281h-74.096
				c-5.522,0-10,4.477-10,10s4.478,10,10,10H302.52v6.932v44.023c0,5.523,4.478,10,10,10h129.813c5.522,0,10-4.477,10-10v-44.023
				v-53.213H492c5.522,0,10-4.477,10-10v-64.342V29.19C502,23.668,497.522,19.19,492,19.19z M302.52,401.856H261v-26.281h41.52
				V401.856z M302.52,355.575H20v-44.342h282.52V355.575z M432.333,462.812H322.52v-24.023h109.813V462.812z M432.333,301.233
				v64.342v53.213H322.52v-53.213v-64.342v-45.312h109.813V301.233z M482,355.575h-29.667v-44.342H482V355.575z M482,291.232
				h-29.667v-45.311c0-5.523-4.478-10-10-10H312.52c-5.522,0-10,4.477-10,10v45.312H20V39.19h462V291.232z"/>
			<path d="M43.864,71.926h270.913c5.523,0,10-4.477,10-10s-4.478-10-10-10H43.864c-5.522,0-10,4.477-10,10
				S38.342,71.926,43.864,71.926z"/>
			<path d="M354.286,71.926h14.674c5.522,0,10-4.477,10-10s-4.478-10-10-10h-14.674c-5.522,0-10,4.477-10,10
				S348.764,71.926,354.286,71.926z"/>
			<path d="M347.513,403.795c5.522,0,10-4.477,10-10v-64.342c0-5.523-4.478-10-10-10c-5.522,0-10,4.477-10,10v64.342
				C337.513,399.318,341.991,403.795,347.513,403.795z"/>
			<path d="M347.513,304.46c5.522,0,10-4.477,10-10v-14.674c0-5.523-4.478-10-10-10c-5.522,0-10,4.477-10,10v14.674
				C337.513,299.983,341.991,304.46,347.513,304.46z"/>
		</g>
	</g>
</g>
<g>
</g>
<g>
</g>
<g>
</g>
<g>
</g>
<g>
</g>
<g>
</g>
<g>
</g>
<g>
</g>
<g>
</g>
<g>
</g>
<g>
</g>
<g>
</g>
<g>
</g>
<g>
</g>
<g>
</g>
</svg>
