<?xml version="1.0" encoding="iso-8859-1"?>
<!-- Generator: Adobe Illustrator 19.0.0, SVG Export Plug-In . SVG Version: 6.00 Build 0)  -->
<svg version="1.1" id="Layer_1" xmlns="http://www.w3.org/2000/svg" xmlns:xlink="http://www.w3.org/1999/xlink" x="0px" y="0px"
	 viewBox="0 0 502 502" style="enable-background:new 0 0 502 502;" xml:space="preserve">
<g>
	<g>
		<g>
			<path d="M157.397,202.942H241v12.016c0,5.523,4.477,10,10,10s10-4.477,10-10v-12.016h83.603c5.523,0,10-4.477,10-10v-54.373
				c0-0.084-0.01-0.165-0.013-0.249c0.002-0.084,0.013-0.165,0.013-0.249V83.699c0-0.084-0.01-0.165-0.013-0.249
				c0.002-0.084,0.013-0.165,0.013-0.249V28.828c0-5.523-4.477-10-10-10H157.397c-5.523,0-10,4.477-10,10v54.373
				c0,0.084,0.01,0.165,0.013,0.249c-0.002,0.084-0.013,0.165-0.013,0.249v54.373c0,0.084,0.01,0.165,0.013,0.249
				c-0.002,0.084-0.013,0.165-0.013,0.249v54.373C147.397,198.465,151.875,202.942,157.397,202.942z M167.397,38.828h167.205v34.373
				H167.397V38.828z M167.397,128.071V93.699h167.205v34.373L167.397,128.071L167.397,128.071z M167.397,148.569h167.205v34.373
				H167.397V148.569z"/>
			<path d="M398.397,266.284H44.429c-5.523,0-10,4.477-10,10c0,0.182,0.018,0.359,0.027,0.538c-0.01,0.179-0.027,0.356-0.027,0.538
				v41.96c0,5.523,4.477,10,10,10s10-4.477,10-10v-33.036H241v33.036c0,5.523,4.477,10,10,10s10-4.477,10-10v-33.036h137.397
				c5.523,0,10-4.477,10-10S403.92,266.284,398.397,266.284z"/>
			<path d="M251,232.931c-5.523,0-10,4.477-10,10v5.379c0,5.523,4.477,10,10,10s10-4.477,10-10v-5.379
				C261,237.408,256.523,232.931,251,232.931z"/>
			<path d="M437.129,286.284h10.442v33.036c0,5.523,4.477,10,10,10s10-4.477,10-10v-41.96c0-0.182-0.018-0.359-0.027-0.538
				c0.01-0.179,0.027-0.356,0.027-0.538c0-5.523-4.477-10-10-10h-20.442c-5.523,0-10,4.477-10,10S431.606,286.284,437.129,286.284z"
				/>
			<path d="M78.857,342.672H10c-5.523,0-10,4.477-10,10v89.299v31.201c0,5.523,4.477,10,10,10h68.857c5.523,0,10-4.477,10-10
				v-31.201v-89.299C88.857,347.149,84.38,342.672,78.857,342.672z M68.857,463.172H20v-11.201h48.857V463.172z M68.857,431.971H20
				v-69.299h48.857V431.971z"/>
			<path d="M285.429,342.672h-68.857c-5.523,0-10,4.477-10,10v89.299v31.201c0,5.523,4.477,10,10,10h68.857c5.523,0,10-4.477,10-10
				v-31.201v-89.299C295.429,347.149,290.952,342.672,285.429,342.672z M226.571,362.672h48.857v69.299h-48.857V362.672z
				 M275.429,463.172h-48.857v-11.201h48.857V463.172z"/>
			<path d="M492,342.672h-68.857c-5.523,0-10,4.477-10,10v89.299v31.201c0,5.523,4.477,10,10,10H492c5.523,0,10-4.477,10-10v-31.201
				v-89.299C502,347.149,497.523,342.672,492,342.672z M482,463.172h-48.857v-11.201H482V463.172z M482,431.971h-48.857v-69.299H482
				V431.971z"/>
		</g>
	</g>
</g>
<g>
</g>
<g>
</g>
<g>
</g>
<g>
</g>
<g>
</g>
<g>
</g>
<g>
</g>
<g>
</g>
<g>
</g>
<g>
</g>
<g>
</g>
<g>
</g>
<g>
</g>
<g>
</g>
<g>
</g>
</svg>
