<?xml version="1.0" encoding="iso-8859-1"?>
<!-- Generator: Adobe Illustrator 19.0.0, SVG Export Plug-In . SVG Version: 6.00 Build 0)  -->
<svg version="1.1" id="Layer_1" xmlns="http://www.w3.org/2000/svg" xmlns:xlink="http://www.w3.org/1999/xlink" x="0px" y="0px"
	 viewBox="0 0 502 502" style="enable-background:new 0 0 502 502;" xml:space="preserve">
<g>
	<g>
		<g>
			<path d="M492,79.5H10c-5.522,0-10,4.477-10,10V142v270.5c0,5.523,4.478,10,10,10h482c5.522,0,10-4.477,10-10V142V89.5
				C502,83.977,497.522,79.5,492,79.5z M482,402.5H20V152h462V402.5z M482,132H20V99.5h462V132z"/>
			<path d="M333,192h123c5.522,0,10-4.477,10-10s-4.478-10-10-10H333c-5.522,0-10,4.477-10,10S327.478,192,333,192z"/>
			<path d="M333,229h123c5.522,0,10-4.477,10-10s-4.478-10-10-10H333c-5.522,0-10,4.477-10,10S327.478,229,333,229z"/>
			<path d="M333,266h123c5.522,0,10-4.477,10-10s-4.478-10-10-10H333c-5.522,0-10,4.477-10,10S327.478,266,333,266z"/>
			<path d="M333,303h123c5.522,0,10-4.477,10-10s-4.478-10-10-10H333c-5.522,0-10,4.477-10,10S327.478,303,333,303z"/>
			<path d="M333,340h12c5.522,0,10-4.477,10-10s-4.478-10-10-10h-12c-5.522,0-10,4.477-10,10S327.478,340,333,340z"/>
			<path d="M456,320h-73c-5.522,0-10,4.477-10,10s4.478,10,10,10h73c5.522,0,10-4.477,10-10S461.522,320,456,320z"/>
			<path d="M50,385h243c5.522,0,10-4.477,10-10s-4.478-10-10-10H60V181c0-5.523-4.478-10-10-10s-10,4.477-10,10v194
				C40,380.523,44.478,385,50,385z"/>
			<path d="M40,126h1c5.522,0,10-4.477,10-10s-4.478-10-10-10h-1c-5.522,0-10,4.477-10,10S34.478,126,40,126z"/>
			<path d="M69,126h1c5.522,0,10-4.477,10-10s-4.478-10-10-10h-1c-5.522,0-10,4.477-10,10S63.478,126,69,126z"/>
			<path d="M99,126h1c5.522,0,10-4.477,10-10s-4.478-10-10-10h-1c-5.522,0-10,4.477-10,10S93.478,126,99,126z"/>
			<path d="M384,126h80c5.522,0,10-4.477,10-10s-4.478-10-10-10h-80c-5.522,0-10,4.477-10,10S378.478,126,384,126z"/>
			<path d="M322,126h25c5.522,0,10-4.477,10-10s-4.478-10-10-10h-25c-5.522,0-10,4.477-10,10S316.478,126,322,126z"/>
		</g>
	</g>
</g>
<g>
</g>
<g>
</g>
<g>
</g>
<g>
</g>
<g>
</g>
<g>
</g>
<g>
</g>
<g>
</g>
<g>
</g>
<g>
</g>
<g>
</g>
<g>
</g>
<g>
</g>
<g>
</g>
<g>
</g>
</svg>
