<?xml version="1.0" encoding="iso-8859-1"?>
<!-- Generator: Adobe Illustrator 19.0.0, SVG Export Plug-In . SVG Version: 6.00 Build 0)  -->
<svg version="1.1" id="Layer_1" xmlns="http://www.w3.org/2000/svg" xmlns:xlink="http://www.w3.org/1999/xlink" x="0px" y="0px"
	 viewBox="0 0 502 502" style="enable-background:new 0 0 502 502;" xml:space="preserve">
<g>
	<g>
		<g>
			<path d="M384.5,0h-267c-5.523,0-10,4.477-10,10v387v95c0,5.523,4.477,10,10,10h267c5.522,0,10-4.477,10-10v-95V10
				C394.5,4.477,390.022,0,384.5,0z M374.5,482h-247v-75h247V482z M374.5,387h-247V20h247V387z"/>
			<path d="M251,470c14.337,0,26-11.664,26-26s-11.663-26-26-26c-5.523,0-10,4.477-10,10s4.477,10,10,10c3.309,0,6,2.691,6,6
				c0,3.309-2.691,6-6,6c-2.316,0-4.386-1.295-5.402-3.38c-2.42-4.965-8.407-7.028-13.371-4.608
				c-4.964,2.42-7.027,8.406-4.608,13.371C231.948,464.262,241.125,470,251,470z"/>
			<path d="M155,55h122c5.522,0,10-4.477,10-10s-4.478-10-10-10H155c-5.523,0-10,4.477-10,10S149.477,55,155,55z"/>
			<path d="M313,55h14c5.522,0,10-4.477,10-10s-4.478-10-10-10h-14c-5.522,0-10,4.477-10,10S307.478,55,313,55z"/>
			<path d="M154,371h39.59c5.523,0,10-4.477,10-10v-74c0-5.523-4.477-10-10-10H154c-5.523,0-10,4.477-10,10v74
				C144,366.523,148.477,371,154,371z M164,297h19.59v54H164V297z"/>
			<path d="M270.79,201H231.2c-5.523,0-10,4.477-10,10v150c0,5.523,4.477,10,10,10h39.59c5.522,0,10-4.477,10-10V211
				C280.79,205.477,276.312,201,270.79,201z M260.79,351H241.2V221h19.59V351z"/>
			<path d="M307.41,371H347c5.522,0,10-4.477,10-10V132c0-5.523-4.478-10-10-10h-39.59c-5.522,0-10,4.477-10,10v229
				C297.41,366.523,301.888,371,307.41,371z M317.41,142H337v209h-19.59V142z"/>
		</g>
	</g>
</g>
<g>
</g>
<g>
</g>
<g>
</g>
<g>
</g>
<g>
</g>
<g>
</g>
<g>
</g>
<g>
</g>
<g>
</g>
<g>
</g>
<g>
</g>
<g>
</g>
<g>
</g>
<g>
</g>
<g>
</g>
</svg>
